<svg xmlns="http://www.w3.org/2000/svg"  viewBox="0 0 100 100" width="100px" height="100px" baseProfile="basic"><path d="M27.5,94C16.196,94,7,84.804,7,73.5v-44C7,23.71,11.71,19,17.5,19H23v-0.5C23,11.607,28.607,6,35.5,6	h33C75.393,6,81,11.607,81,18.5V19h5.5C92.29,19,97,23.71,97,29.5v44C97,84.804,87.804,94,76.5,94H27.5z" opacity=".35"/><path fill="#f2f2f2" d="M25.5,92C14.196,92,5,82.804,5,71.5v-44C5,21.71,9.71,17,15.5,17H21v-0.5C21,9.607,26.607,4,33.5,4	h33C73.393,4,79,9.607,79,16.5V17h5.5C90.29,17,95,21.71,95,27.5v44C95,82.804,85.804,92,74.5,92H25.5z"/><path fill="#2b59a1" d="M88.5,27.5v44c0,7.732-6.268,14-14,14h-49c-7.732,0-14-6.268-14-14v-44c0-2.209,1.791-4,4-4h12v-7	c0-3.314,2.686-6,6-6h33c3.314,0,6,2.686,6,6v7h12C86.709,23.5,88.5,25.291,88.5,27.5z M64.5,17.5h-29v6h29V17.5z"/><rect width="15" height="15" x="51" y="38" fill="#96c362"/><rect width="15" height="15" x="33" y="38" fill="#f4665c"/><rect width="15" height="15" x="51" y="56" fill="#f9b84f"/><rect width="15" height="15" x="33" y="56" fill="#70bfff"/><path fill="#70bfff" d="M67,11H33l-4,1v13.5c0,1.381,1.119,2.5,2.5,2.5s2.5-1.119,2.5-2.5V18h32v7.5	c0,1.381,1.119,2.5,2.5,2.5s2.5-1.119,2.5-2.5V12L67,11z"/><path fill="#40396e" d="M74.5,87h-49C16.953,87,10,80.047,10,71.5v-44c0-3.033,2.468-5.5,5.5-5.5H26v-5.5	c0-4.136,3.364-7.5,7.5-7.5h33c4.136,0,7.5,3.364,7.5,7.5V22h10.5c3.032,0,5.5,2.467,5.5,5.5v44C90,80.047,83.047,87,74.5,87z M15.5,25c-1.379,0-2.5,1.122-2.5,2.5v44C13,78.393,18.607,84,25.5,84h49C81.393,84,87,78.393,87,71.5v-44	c0-1.378-1.121-2.5-2.5-2.5h-12c-0.828,0-1.5-0.671-1.5-1.5v-7c0-2.481-2.019-4.5-4.5-4.5h-33c-2.481,0-4.5,2.019-4.5,4.5v7	c0,0.829-0.672,1.5-1.5,1.5H15.5z"/><path fill="#40396e" d="M64.5,25h-29c-0.828,0-1.5-0.671-1.5-1.5v-6c0-0.829,0.672-1.5,1.5-1.5h29c0.828,0,1.5,0.671,1.5,1.5	v6C66,24.329,65.328,25,64.5,25z M37,22h26v-3H37V22z"/></svg>